<!-- Generator: Adobe Illustrator 21.0.0, SVG Export Plug-In  -->
<svg version="1.1"
	 xmlns="http://www.w3.org/2000/svg" xmlns:xlink="http://www.w3.org/1999/xlink" xmlns:a="http://ns.adobe.com/AdobeSVGViewerExtensions/3.0/"
	 x="0px" y="0px" width="266.5px" height="86.8px" viewBox="0 0 266.5 86.8" style="enable-background:new 0 0 266.5 86.8;"
	 xml:space="preserve">
<defs>
</defs>
<g>
	<path d="M7.6,38.3V0H16v39.7c0,7.8-5.2,10.7-12.8,10.7H0v-7.5h3C5.8,42.9,7.6,41.9,7.6,38.3z"/>
	<path d="M48.2,40.3c0,7.8-4.9,10.7-12.5,10.7h-0.3c-7.6,0-12.5-2.8-12.5-10.7V0h8.4v39c0,3.6,1.6,4.6,4.3,4.6s4.3-1,4.3-4.6V0h8.4
		V40.3z"/>
	<path d="M75.3,43.1h-4.7l-7.6-23.5v30.8h-7.8V0h7.9l9.7,29.3L82.7,0h8.2v50.4h-8.1V19.6L75.3,43.1z"/>
	<path d="M114.2,39.2H105l-1.8,11.2h-8.1L104.5,0H115l9.5,50.4H116L114.2,39.2z M113.1,32.3l-3.5-22.4l-3.5,22.4H113.1z"/>
	<path d="M149.9,50.4h-21.2V0h8.4v42.9h12.9V50.4z"/>
	<path d="M170.4,39.2h-9.2l-1.8,11.2h-8.1L160.7,0h10.5l9.5,50.4h-8.5L170.4,39.2z M169.3,32.3l-3.5-22.4l-3.5,22.4H169.3z"/>
	<path d="M209.7,40.3c0,7.8-4.9,10.7-12.5,10.7h-0.3c-7.6,0-12.5-2.8-12.5-10.7V0h8.4v39c0,3.6,1.6,4.6,4.3,4.6c2.7,0,4.3-1,4.3-4.6
		V0h8.4V40.3z"/>
	<path d="M239,7.3h-8.4v43.1h-8.4V7.3h-8.4V0H239V7.3z"/>
	<path d="M256.2,39.2H247l-1.8,11.2h-8.1L246.5,0H257l9.5,50.4H258L256.2,39.2z M255.2,32.3l-3.5-22.4l-3.5,22.4H255.2z"/>
	<path d="M14.8,86.4H1.5V54.9h5.2v26.8h8.1V86.4z"/>
	<path d="M25.3,54.5h0.4c4.8,0,7.9,1.9,7.9,6.7v18.9c0,4.8-3.1,6.7-7.9,6.7h-0.4c-4.8,0-7.9-1.9-7.9-6.7V61.2
		C17.4,56.4,20.5,54.5,25.3,54.5z M25.5,82.2c1.7,0,2.9-0.6,2.9-2.9V62c0-2.2-1.2-2.9-2.9-2.9s-2.9,0.6-2.9,2.9v17.3
		C22.6,81.5,23.8,82.2,25.5,82.2z"/>
	<path d="M47.7,79.4h-5.8l-1.1,7h-5l5.9-31.5h6.6l5.9,31.5h-5.3L47.7,79.4z M47,75.1l-2.2-14l-2.2,14H47z"/>
	<path d="M72.7,61.6v18.2c0,4.8-3.1,6.7-7.9,6.7h-8.1V54.9h8.1C69.5,54.9,72.7,56.8,72.7,61.6z M64.6,59.5h-2.7v22.3h2.7
		c1.7,0,2.9-0.6,2.9-2.9V62.4C67.4,60.1,66.3,59.5,64.6,59.5z"/>
	<path d="M77.2,86.4V54.9h5.2v31.5H77.2z"/>
	<path d="M87.1,86.4V54.9h5.2l6.6,19.5V54.9h4.8v31.5h-4.9l-6.9-20.5v20.5H87.1z"/>
	<path d="M124.2,80.1c0,4.9-3.1,6.7-7.9,6.7h-0.4c-4.8,0-7.9-1.8-7.9-6.7V61.2c0-4.7,3.1-6.7,7.9-6.7h0.4c4.8,0,7.9,2,7.9,6.7v4.5
		H119V62c0-2.2-1.2-2.9-2.9-2.9s-2.9,0.6-2.9,2.9v17.3c0,2.2,1.2,2.9,2.9,2.9s2.9-0.6,2.9-2.9v-4.7h-3.1v-4.4h8.3V80.1z"/>
	<path d="M151.4,80.1c0,4.9-3.1,6.7-7.9,6.7h-0.1c-4.8,0-7.9-1.8-7.9-6.7V61.2c0-4.7,3.1-6.7,7.9-6.7h0.1c4.8,0,7.9,2,7.9,6.7V67
		h-5.2V62c0-2.2-1.1-2.9-2.7-2.9s-2.7,0.7-2.7,2.9v17.3c0,2.2,1.1,2.9,2.7,2.9s2.7-0.7,2.7-2.9v-5.7h5.2V80.1z"/>
	<path d="M163.3,54.5h0.4c4.8,0,7.9,1.9,7.9,6.7v18.9c0,4.8-3.1,6.7-7.9,6.7h-0.4c-4.8,0-7.9-1.9-7.9-6.7V61.2
		C155.3,56.4,158.5,54.5,163.3,54.5z M163.4,82.2c1.7,0,2.9-0.6,2.9-2.9V62c0-2.2-1.2-2.9-2.9-2.9s-2.9,0.6-2.9,2.9v17.3
		C160.6,81.5,161.7,82.2,163.4,82.2z"/>
	<path d="M175.9,86.4V54.9h5.2l6.6,19.5V54.9h4.8v31.5h-4.9l-6.9-20.5v20.5H175.9z"/>
	<path d="M210.9,59.5h-5.3v26.9h-5.2V59.5h-5.3v-4.6h15.7V59.5z"/>
	<path d="M213.6,86.4V54.9h13.8v4.6h-8.6v8.6h7.2v4.6h-7.2v9.1h8.7v4.6H213.6z"/>
	<path d="M231.2,86.4V54.9h5.2l6.6,19.5V54.9h4.8v31.5h-5L236,65.9v20.5H231.2z"/>
	<path d="M266.3,59.5H261v26.9h-5.2V59.5h-5.3v-4.6h15.7V59.5z"/>
</g>
</svg>
