<!-- Generator: Adobe Illustrator 21.0.0, SVG Export Plug-In  -->
<svg version="1.1"
	 xmlns="http://www.w3.org/2000/svg"
	 x="0px" y="0px" width="266.7px" height="86.8px" viewBox="0 0 266.7 86.8" style="enable-background:new 0 0 266.7 86.8;"
	 xml:space="preserve">
<style type="text/css">
	.st0{fill:#FFFFFF;}
</style>
<defs>
</defs>
<g>
	<path class="st0" d="M7.6,38.3V0H16v39.7c0,7.8-5.2,10.7-12.8,10.7H0v-7.5h3C5.8,42.9,7.6,41.9,7.6,38.3z"/>
	<path class="st0" d="M48.2,40.3c0,7.8-4.9,10.7-12.5,10.7h-0.3c-7.6,0-12.5-2.8-12.5-10.7V0h8.4v39c0,3.6,1.6,4.6,4.3,4.6
		s4.3-1,4.3-4.6V0h8.4V40.3z"/>
	<path class="st0" d="M75.3,43.1h-4.7l-7.6-23.5v30.8h-7.8V0h7.9l9.7,29.3L82.7,0h8.2v50.4h-8.1V19.6L75.3,43.1z"/>
	<path class="st0" d="M114.2,39.2H105l-1.8,11.2h-8.1L104.5,0H115l9.5,50.4H116L114.2,39.2z M113.1,32.3l-3.5-22.4l-3.5,22.4H113.1z
		"/>
	<path class="st0" d="M149.9,50.4h-21.2V0h8.4v42.9h12.9V50.4z"/>
	<path class="st0" d="M170.4,39.2h-9.2l-1.8,11.2h-8.1L160.7,0h10.5l9.5,50.4h-8.5L170.4,39.2z M169.3,32.3l-3.5-22.4l-3.5,22.4
		H169.3z"/>
	<path class="st0" d="M209.7,40.3c0,7.8-4.9,10.7-12.5,10.7h-0.3c-7.6,0-12.5-2.8-12.5-10.7V0h8.4v39c0,3.6,1.6,4.6,4.3,4.6
		c2.7,0,4.3-1,4.3-4.6V0h8.4V40.3z"/>
	<path class="st0" d="M239,7.3h-8.4v43.1h-8.4V7.3h-8.4V0H239V7.3z"/>
	<path class="st0" d="M256.2,39.2H247l-1.8,11.2h-8.1L246.5,0H257l9.5,50.4H258L256.2,39.2z M255.2,32.3l-3.5-22.4l-3.5,22.4H255.2z
		"/>
	<path class="st0" d="M11.5,80.9h-1.4L2.4,60.2v26.2H0.1V53.9h2.5l8.2,22.5L19,53.9h2.6v32.5h-2.5V60.2L11.5,80.9z"/>
	<path class="st0" d="M35,53.5h0.4c4.9,0,7.4,2.3,7.4,6.9v19.5c0,4.6-2.5,6.9-7.4,6.9H35c-4.9,0-7.4-2.3-7.4-6.9V60.4
		C27.5,55.8,30,53.5,35,53.5z M35.2,84.5c3.7,0,5.1-1.5,5.1-5.4V61.2c0-3.9-1.4-5.4-5.1-5.4c-3.7,0-5.1,1.5-5.1,5.4v17.9
		C30,82.9,31.5,84.5,35.2,84.5z"/>
	<path class="st0" d="M48.7,86.4V53.9h2.6L62,80.5V53.9h2.4v32.5h-2.5L51.2,59.6v26.8H48.7z"/>
	<path class="st0" d="M70.6,86.4V53.9h12.8v2.3H73.1v12.6h8.8v2.3h-8.8v13h10.4v2.3H70.6z"/>
	<path class="st0" d="M96.2,86.4h-2.5V73.7l-7.3-19.9h2.7L95,70.7l5.9-16.9h2.6l-7.3,19.9V86.4z"/>
	<path class="st0" d="M125.3,78h-8.7l-1.8,8.4h-2.5l7.3-32.5h2.9l7.3,32.5h-2.6L125.3,78z M124.8,75.8l-3.9-17.9L117,75.8H124.8z"/>
	<path class="st0" d="M133.9,86.4V53.9h2.6l10.6,26.6V53.9h2.4v32.5h-2.5l-10.8-26.8v26.8H133.9z"/>
	<path class="st0" d="M170.7,60.7v18.8c0,4.6-2.5,6.9-7.4,6.9h-7.6V53.9h7.6C168.2,53.9,170.7,56.2,170.7,60.7z M163.1,56.2h-4.9
		v27.9h4.9c3.7,0,5.1-1.5,5.1-5.4V61.6C168.2,57.7,166.8,56.2,163.1,56.2z"/>
	<path class="st0" d="M195.5,80.9h-1.4l-7.6-20.7v26.2h-2.4V53.9h2.5l8.2,22.5l8.3-22.5h2.6v32.5h-2.5V60.2L195.5,80.9z"/>
	<path class="st0" d="M219,53.5h0.4c4.9,0,7.4,2.3,7.4,6.9v19.5c0,4.6-2.5,6.9-7.4,6.9H219c-4.9,0-7.4-2.3-7.4-6.9V60.4
		C211.6,55.8,214.1,53.5,219,53.5z M219.2,84.5c3.7,0,5.1-1.5,5.1-5.4V61.2c0-3.9-1.4-5.4-5.1-5.4s-5.1,1.5-5.1,5.4v17.9
		C214.1,82.9,215.5,84.5,219.2,84.5z"/>
	<path class="st0" d="M246.3,86.4l-5.3-14h-0.5h-5.2v14h-2.5V53.9h7.7c4.9,0,7.4,2.3,7.4,6.9v4.7c0,3.5-1.5,5.7-4.5,6.5l5.6,14.4
		H246.3z M245.4,64.7v-3.1c0-3.9-1.4-5.4-5.1-5.4h-5v13.9h5C243.9,70.1,245.4,68.5,245.4,64.7z"/>
	<path class="st0" d="M253.8,86.4V53.9h12.8v2.3h-10.3v12.6h8.8v2.3h-8.8v13h10.4v2.3H253.8z"/>
</g>
</svg>
